<svg width="55" height="66" viewBox="0 0 55 66" fill="none" xmlns="http://www.w3.org/2000/svg">
  <path d="M16.4396 40.9156L10.9419 35.6798C9.00576 33.8358 5.9236 33.9761 4.16297 35.9883C2.5718 37.8067 2.61864 40.5353 4.27127 42.2982L22.1923 61.414C23.3327 62.6304 24.9228 63.3204 26.59 63.3204C29.8624 63.3204 35.2424 63.3204 40.5678 63.3204C47.8062 63.3204 52.6319 57.2884 52.6319 51.2564C52.6319 51.2564 52.6319 30.5752 52.6319 25.4048" stroke="black" stroke-width="4.52403" stroke-linecap="round" stroke-linejoin="round"/>
  <path d="M43.5838 27.128C43.5838 27.128 43.5838 26.7507 43.5838 25.4046C43.5838 18.5108 52.6319 18.5108 52.6319 25.4046" stroke="black" stroke-width="4.52403" stroke-linecap="round" stroke-linejoin="round"/>
  <path d="M34.5358 27.1281C34.5358 27.1281 34.5358 24.65 34.5358 21.9578C34.5358 15.064 43.5838 15.064 43.5838 21.9578C43.5838 22.6308 43.5838 24.7316 43.5838 25.4047C43.5838 26.7508 43.5838 27.1281 43.5838 27.1281" stroke="black" stroke-width="4.52403" stroke-linecap="round" stroke-linejoin="round"/>
  <path d="M25.4877 27.1285C25.4877 27.1285 25.4877 22.9535 25.4877 19.5883C25.4877 12.6945 34.5357 12.6945 34.5357 19.5883C34.5357 19.5883 34.5357 21.285 34.5357 21.958C34.5357 24.6502 34.5357 27.1285 34.5357 27.1285" stroke="black" stroke-width="4.52403" stroke-linecap="round" stroke-linejoin="round"/>
  <path d="M16.4396 40.9156V7.52403C16.4396 5.02547 18.4651 3 20.9636 3C23.4621 3 25.4877 5.02242 25.4877 7.52099C25.4877 11.1121 25.4877 16.0942 25.4877 19.5881C25.4877 22.9533 25.4877 27.1282 25.4877 27.1282" stroke="black" stroke-width="4.52403" stroke-linecap="round" stroke-linejoin="round"/>
</svg>
